Patient4_TMGait_0pt2_02_right_15_EMG.mot
version=1
nRows=16
nColumns=33
inDegrees=no
endheader
time	1LAddLong	2LGlutMax	3LGlutMed	4LIliopsoas	5LSemiMemb	6LBicFemLong	7LRecFem	8LVastMed	9LVastLat	10LGasMed	11LTibAnt	12lTibPost	13LPeroneusLong	14LSol	15LExtDigLong	16LFlexDigLong	17RAddLong	18RGlutMax	19RGlutMed	20RIliopsoas	21RSemiMemb	22RBicFemLong	23RRecFem	24RVastMed	25RVastLat	26RGasMed	27RTibAnt	28RTibPost	29RPeroneusLong	30RSol	31RExtDigLong	32RFlexDigLong
34.027	0.004883	0.017242	0.071259	-0.002594	-0.004425	0.046844	-0.009918	-0.003662	0.010834	-0.1648	0.007172	0.023956	0.061035	-0.39169	-0.0177	-0.028992	-0.039978	-0.40451	-0.30579	-0.006714	0.26596	0.076141	0.049286	-0.093536	-0.47089	-0.018616	0.026398	-0.005188	-0.54016	-0.014191	-0.005798	0.002289
34.028	0.005798	0.008545	0.10681	-0.018768	0.06424	0.005035	0.012054	0.00061	0.001984	-0.13092	0.00351	-0.005798	0.023499	-0.089569	-0.022888	-0.02533	-0.042419	-0.45517	-0.34561	-0.00412	0.10284	0.032043	0.057678	-0.04776	-0.24704	-0.019226	0.033875	-0.002136	-0.19623	-0.012817	-0.003357	-0.00824
34.029	0.003052	0.02533	0.10651	0.010834	0.062256	0.010223	0.016937	0.001221	0.00473	-0.008698	0.001373	-0.029144	0.006256	0.21988	-0.013275	-0.048218	0	-0.41916	0.061798	-0.001831	0.13351	0.029907	-0.043182	0.31769	-0.17319	-0.007172	-0.010681	-0.002747	0.35446	-0.026398	-0.000305	0.001373
34.03	0.005646	0.019073	0.11978	-0.006409	0.023346	-0.005951	0.008545	-0.00061	0.00824	-0.002747	0.015411	-0.021057	0.001373	0.18143	0.000458	-0.062103	0.045319	-0.34668	0.43243	-0.011444	0.37018	0.076904	0.01236	0.55222	-0.12436	-0.023499	-0.037231	-0.001678	0.42435	-0.087738	-0.004272	-0.001831
34.031	0.001831	-0.000153	0.089569	-0.007019	-0.002441	-0.034943	-0.013733	0.001831	0.01358	-0.020752	0.01358	-0.014954	-0.027008	0.14923	0.001373	-0.039825	0.057678	-0.37918	-0.12711	0.007019	0.34058	0.22095	0.083771	0.22614	-0.121	-0.019531	-0.050507	-0.012054	0.13534	-0.032349	-0.00412	0.009918
34.032	0.00824	0.003815	0.088196	0.027466	0.003204	-0.077515	0.022888	0.001373	-0.000916	-0.028534	0.016632	-0.015106	-0.032806	0.29511	0.011902	-0.027466	-0.009918	-0.33859	-0.088348	-0.026855	0.11673	0.29953	-0.047607	-0.15106	-0.065613	-0.006256	-0.034485	-0.00061	-0.28168	-0.058899	-0.003662	0.005035
34.033	0.009918	0.034943	0.12787	0.001373	0.010834	-0.071869	-0.003357	-0.007629	0.006561	-0.028534	0.015259	-0.010376	-0.041656	0.28641	0.003967	-0.041656	-0.11887	-0.3244	0.13596	-0.026245	-0.27649	0.41153	-0.12222	-0.20752	0.067139	-0.000153	0.042877	0.001068	-0.028534	-0.055847	-0.003967	0.008698
34.034	-0.009918	0.013428	0.1326	-0.009766	0.019379	-0.02243	0.000763	0.001221	-0.000916	-0.013885	0.010376	-0.010529	-0.020905	0.20966	0.014648	-0.030975	-0.14114	-0.36926	0.11307	0.005188	-0.44647	0.24277	-0.1004	-0.29129	0.11658	0.00824	-0.003052	-0.00946	0.72113	-0.067596	-0.003052	-0.001068
34.035	-0.032501	0.045471	0.12589	-0.013428	0.003815	0.030975	0.013275	0.006409	-0.005188	-0.014954	0.022583	-0.014648	-0.008392	0.17181	0.005646	-0.029755	-0.08194	-0.37705	0.16892	-0.006866	0.013733	-0.042114	0.007935	-0.42908	0.06897	0.003204	-0.091095	-0.008087	0.85709	-0.060272	0.000458	-0.003967
34.036	0.012512	0.041504	0.09552	-0.006409	0.003204	0.023804	0.020752	0.000916	0.00946	-0.0354	0.026703	-0.013428	0.029602	0.19516	0.012512	-0.019836	-0.076599	-0.34286	-0.040894	-0.048828	0.24963	-0.18341	0.035706	-0.20462	0.028229	0.007019	-0.037079	-0.022278	0.25345	-0.010986	-0.004272	-0.011597
34.037	0.000305	0.026703	0.097351	0.016479	-0.024719	0.042725	0.018616	-0.00473	0.005646	-0.098724	0.021057	-0.012665	0.073395	0.23651	0.024414	-0.020752	-0.066681	-0.37643	-0.041809	-0.021667	0.18692	-0.16571	-0.02533	0.083771	-0.002747	0.007629	-0.000305	0.001526	0.71335	0.009613	-0.004272	-0.007019
34.038	-0.010986	0.054016	0.093079	-0.010529	-0.088501	-0.02182	-0.002594	0.002289	0.00412	-0.15961	0.007019	-0.011444	0.0383	0.21011	0.016327	-0.014954	-0.035858	-0.27527	-0.048981	-0.052948	0.089874	-0.17395	0.006714	0.10498	-0.024719	0.015259	-0.024414	0.031128	-0.52536	0.067596	-0.005341	-0.005341
34.039	-0.007629	0.04364	0.1004	0.005646	-0.12878	-0.089874	0.009003	-0.006866	0.00351	-0.17197	0.016937	-0.020905	-0.014954	0.2002	0.019379	-0.030823	0.020905	-0.32547	-0.2034	-0.10071	-0.050964	-0.25024	0.058594	0.062256	0.026245	0.019989	-0.040741	0.014496	-1.4075	0.001526	-0.007324	0.001984
34.04	0.00351	0.053711	0.096588	0.005493	-0.029907	-0.10376	0.000763	0.009003	0.000763	-0.22385	0.021515	-0.018311	0.006561	0.21683	0.029297	-0.085144	0.028229	-0.39566	-0.21729	-0.079346	-0.112	-0.24368	0.10284	0.041351	0.025482	0.017853	-0.018311	-0.005341	-1.3068	-0.10086	-0.002899	0.002136
34.041	-0.001984	0.04837	0.10056	0.014191	0.068207	-0.070038	-0.00824	-0.002289	0.008698	-0.18723	0.01236	-0.02243	0.053253	0.1384	0.010071	0.040436	0.077515	-0.3714	0.10971	-0.000458	-0.040894	-0.17807	0.13092	-0.013428	0.015717	0.014343	-0.030823	-0.011139	-0.28885	-0.050964	-0.004272	0.005798
34.042	0.000458	0.008545	0.07843	0.006104	0.017853	-0.052795	-0.006561	-0.002289	0.009003	-0.076141	0.003967	0.001831	0.091095	0.34225	0.014038	0.027313	0.041809	-0.33157	0.069885	0.016327	0.31067	-0.11429	0.13779	-0.039215	0.014801	0.007019	0.075531	-0.005798	-0.019073	-0.019073	-0.007172	0.005035
